<svg version="1.1" xmlns="http://www.w3.org/2000/svg" xmlns:xlink="http://www.w3.org/1999/xlink" width="271.3866" height="244.49999" viewBox="0,0,271.3866,244.49999"><g transform="translate(-104.3067,-57.75)"><g data-paper-data="{&quot;isPaintingLayer&quot;:true}" fill-rule="nonzero" stroke="none" stroke-width="0" stroke-linecap="butt" stroke-linejoin="miter" stroke-miterlimit="10" stroke-dasharray="" stroke-dashoffset="0" style="mix-blend-mode: normal"><path d="M104.3067,283.76546c0,-49.70074 0,-184.195 0,-210.05154c0,-8.41781 7.45264,-15.96392 15.96392,-15.96392c28.90515,0 192.76647,0 241.13918,0c8.50798,0 13.44329,8.90194 13.44329,18.48453c0,28.68357 0.84021,162.11502 0.84021,203.3299c0,6.93209 -6.7579,22.68556 -16.80412,22.68556c-51.2909,0 -210.19644,0 -238.61855,0c-8.51128,0 -15.96392,-6.96445 -15.96392,-18.48453z" fill="#ffffff"/><path d="M276.3067,280.24999v-119.5h42v119.5z" fill="#0065b3"/><path d="M157.8067,202.74999v-119.5h42v119.5z" fill="#0065b3"/><path d="M157.8067,126.74999v-43.5h160.5v43.5z" fill="#0091ff"/><path d="M157.8067,202.74999v-43.5h160.5v43.5z" fill="#0091ff"/><path d="M157.8067,280.24999v-43.5h160.5v43.5z" fill="#0091ff"/></g></g></svg>