<svg version="1.1" xmlns="http://www.w3.org/2000/svg" xmlns:xlink="http://www.w3.org/1999/xlink" width="230" height="230" viewBox="0,0,230,230"><defs><linearGradient x1="205.89832" y1="99.89498" x2="205.89832" y2="190.85207" gradientUnits="userSpaceOnUse" id="color-1"><stop offset="0" stop-color="#fe2d32"/><stop offset="1" stop-color="#fff700"/></linearGradient><linearGradient x1="195.25735" y1="110.01688" x2="286.22471" y2="110.01688" gradientUnits="userSpaceOnUse" id="color-2"><stop offset="0" stop-color="#ff2e2e"/><stop offset="1" stop-color="#cc00ff"/></linearGradient><linearGradient x1="274.10167" y1="169.96747" x2="274.10167" y2="260.92458" gradientUnits="userSpaceOnUse" id="color-3"><stop offset="0" stop-color="#ff216d"/><stop offset="1" stop-color="#008cd8"/></linearGradient><linearGradient x1="193.77529" y1="180.08937" x2="284.74265" y2="180.08937" gradientUnits="userSpaceOnUse" id="color-4"><stop offset="0" stop-color="#ffc40d"/><stop offset="1" stop-color="#ff0d78"/></linearGradient><linearGradient x1="194.52901" y1="249.98312" x2="285.49637" y2="249.98312" gradientUnits="userSpaceOnUse" id="color-5"><stop offset="0" stop-color="#35c265"/><stop offset="1" stop-color="#3576c2"/></linearGradient></defs><g transform="translate(-125,-65)"><g data-paper-data="{&quot;isPaintingLayer&quot;:true}" fill-rule="nonzero" stroke="none" stroke-width="0" stroke-linecap="butt" stroke-linejoin="miter" stroke-miterlimit="10" stroke-dasharray="" stroke-dashoffset="0" style="mix-blend-mode: normal"><path d="M355,180c0,63.51275 -51.48725,115 -115,115c-63.51275,0 -115,-51.48725 -115,-115c0,-63.51275 51.48725,-115 115,-115c63.51275,0 115,51.48725 115,115z" fill="#000000"/><path d="M217.41192,108.81681c-0.11823,11.09512 -0.57966,54.39793 -0.78777,73.92735c-0.06301,5.91339 -7.46687,8.14682 -11.16661,8.10739c-3.71326,-0.03957 -11.13558,-2.42862 -11.07254,-8.34437c0.21055,-19.75893 0.68078,-63.88666 0.79642,-74.73974c0.0242,-2.27062 6.55952,-7.99317 11.90307,-7.87052c5.75899,0.13218 10.3554,6.2933 10.32741,8.91989z" fill="url(#color-1)"/><path d="M204.06724,98.89667c11.09575,0 54.40101,0 73.93155,0c5.91372,0 8.22592,7.37964 8.22592,11.07958c0,3.71348 -2.30983,11.16082 -8.22592,11.16082c-19.76005,0 -63.89028,0 -74.74398,0c-2.27074,0 -8.06261,-6.47397 -7.99691,-11.81854c0.07081,-5.76007 6.18261,-10.42187 8.80934,-10.42187z" fill="url(#color-2)"/><path d="M262.58808,178.88931c-0.02799,-2.62659 4.56842,-8.78771 10.32741,-8.91989c5.34356,-0.12265 11.87888,5.59991 11.90307,7.87052c0.11564,10.85308 0.58587,54.98081 0.79642,74.73974c0.06304,5.91575 -7.35928,8.3048 -11.07254,8.34437c-3.69974,0.03943 -11.1036,-2.19401 -11.16661,-8.10739c-0.2081,-19.52942 -0.66954,-62.83223 -0.78777,-73.92735z" fill="url(#color-3)"/><path d="M284.7421,179.39104c0.0657,5.34456 -5.72617,11.81854 -7.99691,11.81854c-10.8537,0 -54.98393,0 -74.74398,0c-5.91609,0 -8.22592,-7.44735 -8.22592,-11.16082c0,-3.69994 2.3122,-11.07958 8.22592,-11.07958c19.53053,0 62.8358,0 73.93155,0c2.62674,0 8.73853,4.6618 8.80934,10.42187z" fill="url(#color-4)"/><path d="M203.3389,238.86292c11.09575,0 54.40101,0 73.93155,0c5.91372,0 8.22592,7.37964 8.22592,11.07958c0,3.71348 -2.30983,11.16082 -8.22592,11.16082c-19.76005,0 -63.89028,0 -74.74398,0c-2.27074,0 -8.06261,-6.47397 -7.99691,-11.81854c0.07081,-5.76007 6.18261,-10.42187 8.80934,-10.42187z" fill="url(#color-5)"/></g></g></svg>