<svg version="1.1" xmlns="http://www.w3.org/2000/svg" xmlns:xlink="http://www.w3.org/1999/xlink" width="77.75" height="77.25" viewBox="0,0,77.75,77.25"><g transform="translate(-201.125,-141.375)"><g data-paper-data="{&quot;isPaintingLayer&quot;:true}" fill-rule="nonzero" stroke-linejoin="miter" stroke-miterlimit="10" stroke-dasharray="" stroke-dashoffset="0" style="mix-blend-mode: normal"><path d="M201.125,218.625v-77.25h77.75v77.25z" fill="#ffffff" stroke="none" stroke-width="0" stroke-linecap="butt"/><path d="M245.47503,204.88119c0,-9.40417 0,-31.24062 0,-37.04208c0,-2.75995 0.54992,-3.67244 1.66667,-3.67244c1.38879,0 3.53867,0 4.4,0c0.98719,0 2.35483,0.27694 2.35483,2.57218c0,5.28277 0,26.80962 0,37.04208c0,3.32108 -1.20709,5.4524 -2.62151,5.4524c-1.49539,0 -3.22254,0 -4,0c-0.78876,0 -1.8,-1.67069 -1.8,-4.35215z" fill="#d538ff" stroke="none" stroke-width="0" stroke-linecap="butt"/><path d="M219.27503,206.51205c0,-5.44803 0,-18.09832 0,-21.45922c0,-1.59889 0.71658,-2.45283 1.83333,-2.45283c1.38879,0 3.53867,0 4.4,0c0.98719,0 2.18817,0.48575 2.18817,1.81543c0,3.06041 0,15.53135 0,21.45922c0,1.92397 -1.20709,3.15868 -2.62151,3.15868c-1.4954,0 -3.22254,0 -4,0c-0.78876,0 -1.8,-0.96787 -1.8,-2.52129z" fill="#ff0000" stroke="none" stroke-width="0" stroke-linecap="butt"/><path d="M232.47503,205.75382c0,-7.08643 0,-23.54109 0,-27.91272c0,-2.07973 0.88325,-2.77442 2,-2.77442c1.38879,0 3.53867,0 4.4,0c0.98719,0 2.0215,0.21577 2.0215,1.94533c0,3.98078 0,20.20215 0,27.91273c0,2.50257 -1.20708,4.1086 -2.6215,4.1086c-1.4954,0 -3.22254,0 -4,0c-0.78876,0 -1.8,-1.25893 -1.8,-3.27952z" fill="#1d00ff" stroke="none" stroke-width="0" stroke-linecap="butt"/><path d="M264.45836,153.42344v53.41436h-54.82877" fill="none" stroke="#000000" stroke-width="10" stroke-linecap="butt"/><path d="M248.27503,154.26c0,0 -2.30232,4.87811 -5.76322,8.43067c-2.71739,2.78936 -5.97915,5.54791 -8.25079,7.22175c-2.30023,1.69491 -6.46396,3.8861 -10.26821,5.96329c-4.39926,2.40209 -9.31778,3.38429 -9.31778,3.38429" fill="none" stroke="#000000" stroke-width="5" stroke-linecap="round"/><g stroke="#000000" stroke-width="0" stroke-linecap="butt"><path d="M226.92607,154.69956v2.85088c0,1.68698 -1.36753,3.05451 -3.05451,3.05451h-6.55702c-0.34714,0 -0.62681,0.28954 -0.61027,0.64049c0.01559,0.32852 0.29862,0.58131 0.62761,0.58131h3.64807v1.6698c0,1.68698 -1.36753,3.05451 -3.05451,3.05451h-2.85088c-1.68698,0 -3.05451,-1.36753 -3.05451,-3.05451v-2.8916c-0.44991,0 -0.81454,-0.36463 -0.81454,-0.81454v-4.47995h8.9599v-3.66541h3.70614c1.68698,0 3.05451,1.36753 3.05451,3.05451zM223.87156,151.64506" fill="#feef55"/><path d="M226.92607,154.69956v2.85088c0,1.68698 -1.36753,3.05451 -3.05451,3.05451h-6.55702c-0.34714,0 -0.62681,0.28954 -0.61027,0.64049c0.01559,0.32852 0.29862,0.58131 0.62761,0.58131h3.64807v1.6698c0,1.68698 -1.36753,3.05451 -3.05451,3.05451h-1.42544v-11.2406h3.66541v-3.66541h3.70614c1.68698,0 3.05451,1.36753 3.05451,3.05451zM223.87156,151.64506" fill="#fedc00"/><path d="M212.02006,157.75408v2.85088h-2.89161c-1.68428,0 -3.05451,-1.37023 -3.05451,-3.05451v-2.85088c0,-1.68428 1.37023,-3.05451 3.05451,-3.05451h6.55702c0.33743,0 0.61091,-0.27347 0.61091,-0.61091c0,-0.33743 -0.27347,-0.6109 -0.61091,-0.6109h-3.66541v-1.6698c0,-1.68428 1.37023,-3.05451 3.05451,-3.05451h2.85088c1.68428,0 3.05451,1.37023 3.05451,3.05451v5.74248c0,0.89965 -0.72942,1.62908 -1.62908,1.62908h-5.70175c-0.89965,0 -1.62908,0.72942 -1.62908,1.62908zM213.64913,156.125" fill="#78e0ea"/><path d="M220.97995,148.75345v5.74248c0,0.89965 -0.72942,1.62908 -1.62907,1.62908h-2.85088v-10.42606h1.42544c1.68428,0 3.05451,1.37023 3.05451,3.05451zM217.92544,145.69894" fill="#3cccdd"/><path d="M215.68547,148.18327c0,0.33743 -0.27347,0.61091 -0.6109,0.61091c-0.33743,0 -0.61091,-0.27347 -0.61091,-0.61091c0,-0.33743 0.27347,-0.6109 0.61091,-0.6109c0.33743,0 0.6109,0.27347 0.6109,0.6109zM215.68547,148.18327" fill="#5a5a6e"/><path d="M218.53634,164.06673c0,0.33743 -0.27347,0.6109 -0.6109,0.6109c-0.33743,0 -0.61091,-0.27347 -0.61091,-0.6109c0,-0.33743 0.27347,-0.61091 0.61091,-0.61091c0.33743,0 0.6109,0.27347 0.6109,0.61091zM218.53634,164.06673" fill="#46465a"/></g></g></g></svg>